# xmcd
#
# Track frame offsets: 
#        150
#        28713
#        59173
#        82885
#        113887
#        131775
#        153128
#        183604
#
# Disc length: 2939 seconds
#
# Revision: 0
# Processed by: cddbd v1.5.2PL0 Copyright (c) Steve Scherf et al.
# Submitted via: ExactAudioCopy v0.95b4
#
DISCID=690b7908
DTITLE=Peter Hammill - Nameless And Untitled
DYEAR=1978
DGENRE=Blues
TTITLE0=The Lie (Bernini's Saint Teresa) (Live In Los Angeles 04.02.78
TTITLE0=)
TTITLE1=My Room (Live In Los Angeles 04.02.78)
TTITLE2=Easy To Slip Away (Live In Los Angeles 04.02.78)
TTITLE3=Time Heals (Live In Los Angeles 04.02.78)
TTITLE4=This Side Of The Looking-Glass (Live In Los Angeles 04.02.78)
TTITLE5=Mirror Images (Live In Los Angeles 04.02.78)
TTITLE6=House With No Door (Live In Los Angeles 04.02.78)
TTITLE7=Still Life (Live In Los Angeles 04.02.78)
EXTD=
EXTT0=
EXTT1=
EXTT2=
EXTT3=
EXTT4=
EXTT5=
EXTT6=
EXTT7=
PLAYORDER=
